<svg width="104" height="18" viewBox="0 0 104 18" fill="none" xmlns="http://www.w3.org/2000/svg">
<path d="M27.7204 13.0395C28.3298 13.3285 28.7975 13.7313 28.9773 14.3725C29.3455 15.6824 28.9773 17.0091 27.1978 17.4731C26.5917 17.6232 25.9707 17.7053 25.3463 17.7178C23.5224 17.779 21.6984 17.798 19.8745 17.76C19.7221 17.76 19.5719 17.741 19.4216 17.7241C18.7043 17.6419 18.3933 17.3255 18.3637 16.6041C18.3256 15.4187 18.2706 14.2333 18.1859 13.05C18.0717 11.4807 17.9383 9.91356 17.8156 8.34638C17.731 7.24746 17.6485 6.14854 17.5786 5.04961C17.5771 4.81409 17.5976 4.57894 17.64 4.34723C17.6637 4.15335 17.7433 3.97047 17.8691 3.82073C17.9949 3.67099 18.1615 3.56081 18.3488 3.50353C18.9161 3.29103 19.5127 3.16655 20.1178 3.13441C21.4868 3.02894 22.8558 2.97621 24.2101 3.27784C26.07 3.68914 27.6485 4.54339 28.5541 6.28775C28.987 7.08681 29.241 7.96988 29.2987 8.87618C29.3565 9.78248 29.2165 10.6905 28.8884 11.5377C28.6396 12.1327 28.2365 12.651 27.7204 13.0395ZM23.5245 11.7739V12.3645C23.5245 12.8961 23.5245 12.8961 24.0535 12.7864C24.3788 12.7345 24.6702 12.5562 24.8637 12.2905C25.0573 12.0247 25.1373 11.6933 25.0861 11.369C24.9781 10.5759 24.555 10.2046 23.8165 10.2363C23.6536 10.2363 23.5858 10.289 23.5816 10.462C23.5753 10.8923 23.5478 11.3331 23.5245 11.7739ZM23.4991 14.8408H23.4758C23.4758 15.0517 23.4758 15.2753 23.4758 15.4904C23.4758 15.617 23.5076 15.6782 23.6472 15.6803C23.9616 15.6978 24.2724 15.6069 24.5274 15.4229C24.6298 15.3539 24.7118 15.2588 24.7649 15.1475C24.8179 15.0362 24.8401 14.9128 24.8291 14.7901C24.8181 14.6674 24.7743 14.5498 24.7022 14.4497C24.6302 14.3495 24.5326 14.2705 24.4195 14.2207C24.1745 14.1218 23.9152 14.0627 23.6514 14.0456C23.5308 14.0266 23.5012 14.0941 23.5012 14.1932C23.5012 14.4084 23.4991 14.6256 23.4991 14.8408Z" fill="#F77833"/>
<path d="M75.0165 13.0206C74.0673 14.1702 73.1849 15.3731 72.3736 16.6232C72.3358 16.6774 72.3012 16.7338 72.2699 16.7919C72.1445 17.0692 71.939 17.303 71.6797 17.4634C71.4204 17.6238 71.1191 17.7036 70.8142 17.6926C69.8599 17.7327 68.9041 17.72 67.9513 17.6546C67.6021 17.6209 67.5281 17.5302 67.4688 17.1843C67.3723 16.4085 67.3327 15.6267 67.3503 14.8451C67.3503 12.5952 67.356 10.3517 67.3673 8.11445C67.3673 6.8489 67.3927 5.58334 67.4053 4.32833C67.4053 4.27138 67.4053 4.21443 67.4053 4.15748C67.4244 3.66181 67.49 3.57955 67.9872 3.569C68.7701 3.55213 69.5552 3.55634 70.3402 3.569C70.7443 3.569 70.8163 3.64704 70.8142 4.06046C70.8142 4.94634 70.7888 5.83012 70.7782 6.71601C70.7782 7.23067 70.7782 7.74744 70.7782 8.28952C71.1548 7.70526 71.5124 7.13576 71.887 6.57891C72.5226 5.62975 73.2436 4.74019 74.041 3.92125C74.1645 3.79188 74.3138 3.68961 74.4792 3.62096C74.6446 3.55232 74.8225 3.51882 75.0016 3.5226C75.8807 3.50603 76.76 3.5349 77.636 3.60908C78.1058 3.64915 78.22 3.76516 78.22 4.22498C78.22 6.36517 78.2123 8.50466 78.1967 10.6435C78.184 12.6599 78.1587 14.6764 78.1417 16.6928C78.1417 17.5112 78.0359 17.6356 77.2319 17.6694C76.646 17.6993 76.0588 17.6944 75.4735 17.6546C74.9995 17.6188 74.8387 17.469 74.8599 16.9944C74.9022 15.7436 74.9614 14.4928 75.0143 13.2421C75.0165 13.1914 75.0165 13.1471 75.0165 13.0206Z" fill="#F77833"/>
<path d="M37.3904 3.60886C38.6367 3.60886 39.6016 3.60886 40.5643 3.60886C40.8119 3.60886 40.9663 3.6848 40.9685 3.959C40.9971 5.73031 40.8254 7.4992 40.4564 9.23215C40.4564 9.27011 40.4437 9.30808 40.4331 9.34394C40.266 9.97671 40.2596 9.95773 39.6037 9.91766C38.8398 9.87125 38.0738 9.86703 37.3079 9.83961C37.1619 9.83961 37.0963 9.8607 37.0857 10.0337C37.0285 10.8774 37.0243 10.8774 37.8644 10.8584C38.5436 10.8331 39.2207 10.774 39.902 10.7508C40.3993 10.7339 40.5897 10.9744 40.4903 11.4616C40.4098 11.839 40.3081 12.2115 40.1856 12.5774C40.1448 12.723 40.0615 12.8532 39.9461 12.9512C39.8308 13.0493 39.6887 13.1108 39.5381 13.1279C38.8082 13.233 38.0694 13.2634 37.3332 13.2186C37.0476 13.2186 36.9756 13.2904 36.9672 13.5709C36.946 14.3661 36.9312 14.3555 37.7459 14.3787C38.4653 14.3998 39.1805 14.3049 39.8999 14.3112C40.2004 14.3112 40.3231 14.4188 40.3231 14.7078C40.3414 15.433 40.3132 16.1587 40.2385 16.8803C40.235 16.997 40.1909 17.1089 40.1137 17.1967C40.0364 17.2844 39.9309 17.3426 39.8153 17.3612C39.1702 17.5082 38.5112 17.5853 37.8495 17.5911C36.6117 17.6481 35.3717 17.6354 34.1339 17.6207C33.5855 17.6404 33.0366 17.5965 32.4983 17.4899C32.0582 17.3823 31.927 17.2473 31.8635 16.8128C31.6794 15.5831 31.5905 14.3429 31.4974 13.1026C31.3239 10.8014 31.1948 8.49812 31.0869 6.19481C31.0637 5.7139 31.0446 5.2351 31.0256 4.75419C31.0108 4.3471 31.0869 4.22266 31.4742 4.07079C32.0555 3.87217 32.6629 3.75919 33.277 3.73542C34.7412 3.60464 36.2076 3.60043 37.3904 3.60886Z" fill="#F77833"/>
<path d="M42.2677 10.4006C42.2677 6.952 44.3942 4.16145 47.6676 3.37259C49.1107 3.02245 50.5728 3.08784 52.0307 3.33251C52.5767 3.42321 52.856 3.71851 52.9596 4.2648C53.1578 5.3794 53.2674 6.50784 53.2876 7.63962C53.3024 8.091 53.3215 8.54238 53.3257 8.99376C53.3299 9.44514 53.167 9.58435 52.7078 9.48944C52.0521 9.34133 51.3758 9.30637 50.7083 9.38608C49.3265 9.5717 48.4294 10.698 48.5182 12.1471C48.605 13.5603 49.6545 14.5875 51.0214 14.6086C51.4376 14.6251 51.8534 14.5665 52.2487 14.4356C52.3227 14.4028 52.4039 14.3891 52.4847 14.3956C52.5654 14.4021 52.6433 14.4288 52.7111 14.473C52.7788 14.5173 52.8344 14.5778 52.8727 14.649C52.9109 14.7203 52.9306 14.7999 52.93 14.8807C52.9529 15.4548 52.9282 16.0297 52.856 16.5997C52.8263 16.8571 52.619 16.9752 52.418 17.0828C51.868 17.3608 51.2682 17.5271 50.6532 17.5721C48.8335 17.7535 47.0857 17.5088 45.4797 16.5892C43.66 15.5472 42.7142 13.9189 42.3841 11.8961C42.3006 11.4021 42.2617 10.9016 42.2677 10.4006Z" fill="#F77833"/>
<path d="M103.971 8.29987C103.971 8.53611 103.971 8.77235 103.971 9.00648C103.971 9.44942 103.808 9.58652 103.37 9.48739C102.928 9.38739 102.476 9.33645 102.022 9.33552C101.085 9.33552 100.222 9.54645 99.661 10.3712C99.3605 10.7883 99.185 11.282 99.155 11.7947C99.125 12.3074 99.2418 12.8181 99.4918 13.2672C99.9615 14.1995 100.776 14.6044 101.819 14.6044C102.188 14.6089 102.555 14.5511 102.905 14.4336C102.982 14.3996 103.068 14.3864 103.152 14.3955C103.236 14.4046 103.317 14.4355 103.385 14.4853C103.454 14.535 103.508 14.6018 103.542 14.679C103.577 14.7561 103.591 14.841 103.582 14.9251C103.595 15.4714 103.573 16.0181 103.518 16.5618C103.501 16.6693 103.456 16.7703 103.388 16.8553C103.319 16.9403 103.23 17.0063 103.129 17.047C102.56 17.3504 101.932 17.5288 101.288 17.5701C99.4875 17.7494 97.7567 17.5026 96.1655 16.604C94.4135 15.6127 93.4401 14.0729 93.0804 12.1219C92.7905 10.5947 92.8307 9.06975 93.4253 7.6228C94.4833 5.09169 96.3876 3.61521 99.1151 3.22922C100.289 3.0724 101.481 3.10373 102.645 3.32202C103.243 3.4296 103.531 3.74388 103.631 4.33658C103.769 5.12488 103.858 5.92084 103.899 6.72004C103.925 7.24525 103.899 7.77467 103.899 8.29987H103.971Z" fill="#F77833"/>
<path d="M7.61636 12.6449C7.5356 14.1818 7.5356 15.722 7.61636 17.259C7.64431 17.7883 7.61636 17.8568 7.07905 17.9346C6.786 17.9782 6.49014 18 6.19389 18C4.89772 18 3.60466 18 2.3147 18C2.09419 18 1.87367 18 1.65316 17.9813C1.23698 17.9813 1.12206 17.8817 1.01025 17.4707C0.887843 16.9467 0.819158 16.4115 0.805267 15.8735C0.639622 13.2582 0.484331 10.644 0.339392 8.03075C0.199629 5.58669 0.0288086 3.14575 0.0288086 0.695471C0.0288086 0.303177 0.0722904 0.240908 0.472943 0.172412C1.42195 0.0453295 2.37927 -0.00879489 3.33652 0.0105124C4.51674 -0.00816824 5.69695 0.0105124 6.87406 0.0105124C7.2654 0.0105124 7.29646 0.0354203 7.28403 0.440168C7.23124 1.99689 7.28403 3.55361 7.35547 5.11034C7.38963 5.94785 7.45175 6.78537 7.56667 7.63534C7.87725 6.86321 8.2251 6.07862 8.5419 5.31582C9.20965 3.67192 9.83392 2.01246 10.3526 0.31563C10.3571 0.268234 10.3712 0.222264 10.3941 0.180554C10.417 0.138845 10.4482 0.102279 10.4858 0.0731094C10.5233 0.0439398 10.5664 0.0227849 10.6124 0.0109483C10.6584 -0.000888296 10.7063 -0.00315591 10.7533 0.0042854C12.496 0.0321096 14.2346 0.18506 15.9555 0.461962C16.6077 0.580273 16.6326 0.645655 16.4276 1.27146C15.5766 3.87741 14.4461 6.34637 12.7534 8.51956C12.6163 8.653 12.5314 8.83134 12.5143 9.02217C12.4972 9.213 12.549 9.40364 12.6602 9.55945C14.5672 12.0502 16.0766 13.8653 16.9121 16.5834C17.0301 16.9694 16.9742 17.0909 16.6015 17.2372C15.9367 17.4639 15.2437 17.5969 14.5424 17.6326C13.4181 17.7478 12.2906 17.7883 11.1601 17.8007C11.0625 17.816 10.9629 17.7917 10.8831 17.7333C10.8033 17.675 10.7499 17.5872 10.7346 17.4894C10.219 16.0292 9.42706 14.6406 7.84619 12.8597C7.80892 12.7632 7.65984 12.7258 7.61636 12.6449Z" fill="#F77833"/>
<path d="M85.6969 13.2691C85.6329 14.4813 85.6329 15.6961 85.6969 16.9084C85.719 17.3259 85.6969 17.3799 85.2717 17.4413C85.0398 17.4756 84.8057 17.4929 84.5712 17.4928C83.5456 17.4928 82.5224 17.4928 81.5016 17.4928C81.3271 17.4928 81.1526 17.4928 80.9781 17.4781C80.6488 17.4781 80.5579 17.3995 80.4694 17.0754C80.3725 16.6621 80.3182 16.24 80.3072 15.8156C80.1761 13.7528 80.0532 11.6909 79.9385 9.62976C79.8279 7.70206 79.6927 5.77681 79.6927 3.84419C79.6927 3.53478 79.7272 3.48567 80.0442 3.43164C80.7952 3.33141 81.5527 3.28872 82.3102 3.30395C83.2441 3.28921 84.178 3.30395 85.1095 3.30395C85.4191 3.30395 85.4437 3.32359 85.4339 3.64283C85.3921 4.87067 85.4339 6.0985 85.4904 7.32634C85.5174 7.98692 85.5666 8.6475 85.6575 9.31789C85.9033 8.70889 86.1786 8.09006 86.4292 7.48842C86.9576 6.19182 87.4516 4.88294 87.8621 3.5446C87.8656 3.50722 87.8768 3.47096 87.8949 3.43806C87.9131 3.40517 87.9377 3.37633 87.9674 3.35332C87.9971 3.33031 88.0312 3.31363 88.0677 3.30429C88.1041 3.29495 88.142 3.29317 88.1791 3.29903C89.5582 3.32098 90.9339 3.44162 92.2957 3.66002C92.8118 3.75333 92.8315 3.8049 92.6693 4.29849C91.9959 6.35389 91.1013 8.30124 89.7618 10.0153C89.6533 10.1206 89.5862 10.2612 89.5727 10.4117C89.5591 10.5622 89.6001 10.7126 89.6881 10.8355C91.1971 12.8 92.3916 14.2317 93.0527 16.3755C93.1461 16.68 93.1018 16.7758 92.8069 16.8912C92.2808 17.07 91.7324 17.1749 91.1775 17.2031C90.2878 17.2939 89.3957 17.3259 88.5011 17.3357C88.4238 17.3477 88.345 17.3286 88.2818 17.2825C88.2187 17.2365 88.1765 17.1673 88.1644 17.0901C87.7564 15.9384 87.1297 14.8432 85.8787 13.4385C85.8492 13.3624 85.7313 13.3329 85.6969 13.2691Z" fill="#F77833"/>
<path d="M59.0071 3.32617C60.9749 3.30789 62.9406 3.35007 64.9043 3.45272C65.812 3.50123 65.848 3.52233 65.8755 4.43775C65.9284 6.09562 65.9199 7.7535 65.8332 9.41138C65.8141 9.7573 65.7083 9.86065 65.3592 9.86276C64.7075 9.86276 64.0536 9.86276 63.4019 9.86276C63.2051 9.86276 63.1544 9.9176 63.1417 10.1138C63.0105 12.4339 62.7968 14.733 62.5323 17.0363C62.521 17.1588 62.4684 17.2739 62.3831 17.3627C62.2978 17.4516 62.1848 17.509 62.0625 17.5257C61.7672 17.5944 61.4643 17.6256 61.1611 17.6185C60.3147 17.6185 59.4684 17.6185 58.622 17.5405C58.2496 17.5088 58.1353 17.416 58.1099 17.0427C58.0337 15.8868 57.9703 14.7225 57.8856 13.5751C57.801 12.3812 57.6931 11.1895 57.6042 9.98931C57.5915 9.79104 57.4688 9.79104 57.3355 9.77839C56.7218 9.77839 56.1061 9.76362 55.4925 9.7594C54.9593 9.7594 54.9 9.69613 54.8683 9.1667C54.7794 7.61429 54.7879 6.05977 54.8323 4.50524C54.8323 4.26057 54.8598 4.01589 54.8746 3.77122C54.8712 3.71494 54.8798 3.65858 54.8999 3.60587C54.92 3.55315 54.951 3.50528 54.991 3.46541C55.031 3.42554 55.079 3.39459 55.1319 3.37458C55.1848 3.35458 55.2413 3.34599 55.2978 3.34937C56.5314 3.29453 57.7692 3.34304 59.0071 3.32617Z" fill="#F77833"/>
</svg>
