<svg width="24" height="24" viewBox="0 0 24 24" fill="none" xmlns="http://www.w3.org/2000/svg">
<path fill-rule="evenodd" clip-rule="evenodd" d="M4.72963 15.7296C5.59699 14.8623 6.77337 14.375 8 14.375H16C17.2266 14.375 18.403 14.8623 19.2704 15.7296C20.1377 16.597 20.625 17.7734 20.625 19V21C20.625 21.3452 20.3452 21.625 20 21.625H4C3.65482 21.625 3.375 21.3452 3.375 21V19C3.375 17.7734 3.86228 16.597 4.72963 15.7296ZM8 15.625C7.10489 15.625 6.24645 15.9806 5.61351 16.6135C4.98058 17.2465 4.625 18.1049 4.625 19V20.375H19.375V19C19.375 18.1049 19.0194 17.2465 18.3865 16.6135C17.7535 15.9806 16.8951 15.625 16 15.625H8Z" fill="#383838"/>
<path d="M12 11C14.2091 11 16 9.20914 16 7C16 4.79086 14.2091 3 12 3C9.79086 3 8 4.79086 8 7C8 9.20914 9.79086 11 12 11Z" stroke="#383838" stroke-width="1.25" stroke-linecap="round" stroke-linejoin="round"/>
</svg>
