<svg width="104" height="18" viewBox="0 0 104 18" fill="none" xmlns="http://www.w3.org/2000/svg"><path d="M27.72 13.04c.61.29 1.08.7 1.26 1.33.37 1.31 0 2.64-1.78 3.1a8.4 8.4 0 0 1-1.85.25c-1.83.06-3.65.08-5.48.04-.15 0-.3-.02-.45-.04-.72-.08-1.03-.4-1.06-1.12a90.5 90.5 0 0 0-.17-3.55l-.37-4.7-.24-3.3c0-.24.02-.47.06-.7a1 1 0 0 1 .7-.85 5.94 5.94 0 0 1 1.78-.37 13.8 13.8 0 0 1 4.09.15c1.86.4 3.44 1.26 4.34 3a6.27 6.27 0 0 1 .34 5.26 3.6 3.6 0 0 1-1.17 1.5Zm-4.2-1.27v.6c0 .53 0 .53.53.42a1.24 1.24 0 0 0 1.04-1.42c-.11-.8-.54-1.17-1.27-1.13-.17 0-.23.05-.24.22 0 .43-.03.87-.06 1.31Zm-.02 3.07h-.02v.65c0 .13.03.19.17.19.31.02.62-.07.88-.26a.7.7 0 0 0-.11-1.2c-.25-.1-.5-.16-.77-.17-.12-.02-.15.04-.15.14v.65Z" fill="#F77833"/><path d="M75.02 13.02a39.03 39.03 0 0 0-2.75 3.77 1.53 1.53 0 0 1-1.46.9c-.95.04-1.9.03-2.86-.04-.35-.03-.42-.12-.48-.47a15.1 15.1 0 0 1-.12-2.33c0-2.25 0-4.5.02-6.74 0-1.26.02-2.53.04-3.78v-.17c.01-.5.08-.58.58-.6a62.5 62.5 0 0 1 2.35 0c.4 0 .48.09.47.5 0 .89-.02 1.77-.03 2.66v1.57l1.1-1.71c.64-.95 1.36-1.84 2.16-2.66a1.29 1.29 0 0 1 .96-.4c.88-.01 1.76.01 2.64.09.47.04.58.16.58.61 0 2.15 0 4.28-.02 6.42l-.06 6.05c0 .82-.1.95-.9.98-.6.03-1.18.02-1.77-.02-.47-.03-.63-.18-.61-.66l.15-3.75v-.22Z" fill="#F77833"/><path d="M37.39 3.6h3.17c.25 0 .4.08.4.36a23.5 23.5 0 0 1-.5 5.27c0 .04-.02.08-.03.11-.16.64-.17.62-.83.58-.76-.05-1.53-.05-2.3-.08-.14 0-.2.02-.21.2-.06.84-.07.84.77.82.68-.03 1.36-.09 2.04-.1.5-.03.69.21.59.7-.08.38-.18.75-.3 1.12a.76.76 0 0 1-.65.55c-.73.1-1.47.13-2.2.09-.3 0-.36.07-.37.35-.02.8-.04.79.78.8.72.03 1.43-.07 2.15-.06.3 0 .42.1.42.4.02.72 0 1.45-.08 2.17a.5.5 0 0 1-.42.48 8.7 8.7 0 0 1-1.97.23 64.2 64.2 0 0 1-3.72.03 7.1 7.1 0 0 1-1.63-.13c-.44-.1-.57-.24-.64-.68-.18-1.23-.27-2.47-.36-3.7a243.3 243.3 0 0 1-.47-8.36c-.02-.4.06-.53.44-.68.59-.2 1.2-.31 1.8-.33 1.47-.14 2.94-.14 4.12-.13Z" fill="#F77833"/><path d="M42.27 10.4a7 7 0 0 1 5.4-7.03c1.44-.35 2.9-.28 4.36-.04.55.1.83.39.93.93.2 1.12.3 2.25.33 3.38l.04 1.35c0 .46-.16.6-.62.5a5.9 5.9 0 0 0-2-.1c-1.38.18-2.28 1.3-2.2 2.76a2.53 2.53 0 0 0 2.51 2.46c.42.02.83-.04 1.23-.17a.49.49 0 0 1 .68.44 11 11 0 0 1-.07 1.72c-.03.26-.24.38-.44.48-.55.28-1.15.45-1.77.5a8.45 8.45 0 0 1-5.17-1 6.24 6.24 0 0 1-3.1-4.68c-.08-.5-.12-1-.11-1.5Z" fill="#F77833"/><path d="M103.97 8.3V9c0 .45-.16.59-.6.49-.44-.1-.9-.15-1.35-.15-.94 0-1.8.2-2.36 1.03a2.7 2.7 0 0 0-.17 2.9c.47.93 1.29 1.33 2.33 1.33.37 0 .74-.05 1.09-.17a.49.49 0 0 1 .67.5c.02.54 0 1.09-.06 1.63a.63.63 0 0 1-.4.49c-.56.3-1.19.48-1.83.52a8.46 8.46 0 0 1-5.12-.97 6.15 6.15 0 0 1-3.09-4.48 7.8 7.8 0 0 1 .35-4.5 6.85 6.85 0 0 1 5.69-4.4c1.17-.15 2.36-.12 3.52.1.6.11.9.42 1 1.02.13.78.22 1.58.26 2.38.02.53 0 1.05 0 1.58h.07Z" fill="#F77833"/><path d="M7.62 12.64a43.97 43.97 0 0 0 0 4.62c.02.53 0 .6-.54.67-.3.05-.59.07-.89.07H2.31c-.22 0-.44 0-.66-.02-.41 0-.53-.1-.64-.5a7.92 7.92 0 0 1-.2-1.6C.64 13.25.48 10.63.34 8.02.2 5.6.03 3.15.03.7.03.3.07.24.47.17 1.42.05 2.37 0 3.34.01h3.53c.4 0 .43.03.41.43a58.57 58.57 0 0 0 .29 7.2c.3-.78.66-1.56.97-2.32A59.62 59.62 0 0 0 10.4.18a.35.35 0 0 1 .36-.18c1.75.03 3.48.19 5.2.46.66.12.68.19.48.81a23.44 23.44 0 0 1-3.68 7.25.8.8 0 0 0-.09 1.04c1.9 2.49 3.42 4.3 4.25 7.02.12.39.06.51-.3.66-.67.22-1.37.36-2.07.4-1.12.1-2.25.15-3.38.16a.37.37 0 0 1-.43-.31 13.48 13.48 0 0 0-2.88-4.63c-.04-.1-.19-.13-.23-.22Z" fill="#F77833"/><path d="M85.7 13.27a34.51 34.51 0 0 0 0 3.64c.02.42 0 .47-.43.53-.23.04-.46.05-.7.05H81.5l-.52-.01c-.33 0-.42-.08-.51-.4-.1-.42-.15-.84-.16-1.26-.13-2.07-.26-4.13-.37-6.19-.11-1.93-.25-3.85-.25-5.79 0-.3.04-.35.35-.4.76-.1 1.51-.15 2.27-.14h2.8c.3 0 .33.02.32.34a46.04 46.04 0 0 0 .23 5.68c.24-.61.52-1.23.77-1.83a46.95 46.95 0 0 0 1.46-4.05.28.28 0 0 1 .29-.14c1.38.02 2.75.14 4.12.36.51.1.53.14.37.64-.67 2.05-1.57 4-2.9 5.72a.63.63 0 0 0-.08.82c1.5 1.96 2.7 3.4 3.36 5.54.1.3.05.4-.24.51a6.1 6.1 0 0 1-1.63.31c-.9.1-1.78.13-2.68.14a.3.3 0 0 1-.34-.25 10.63 10.63 0 0 0-2.28-3.65c-.03-.08-.15-.1-.18-.17Z" fill="#F77833"/><path d="M59 3.33c1.97-.02 3.94.02 5.9.12.91.05.95.07.98.99a59.1 59.1 0 0 1-.05 4.97c-.02.35-.12.45-.47.45H63.4c-.2 0-.25.06-.26.25-.13 2.32-.34 4.62-.6 6.93a.54.54 0 0 1-.48.49c-.3.06-.6.1-.9.09-.85 0-1.7 0-2.54-.08-.37-.03-.48-.12-.51-.5l-.22-3.46-.29-3.6c0-.19-.13-.19-.26-.2l-1.85-.02c-.53 0-.59-.06-.62-.6-.1-1.55-.08-3.1-.04-4.65 0-.25.03-.5.04-.74a.4.4 0 0 1 .43-.42c1.23-.06 2.47 0 3.7-.02Z" fill="#F77833"/></svg>