<svg width="43" height="27" viewBox="0 0 43 27" fill="none" xmlns="http://www.w3.org/2000/svg"><path d="M27.17 2.82H15.61V23.6h11.56V2.82Z" fill="#FF5F00"/><path d="M16.35 13.21a13.19 13.19 0 0 1 5.04-10.39 13.21 13.21 0 1 0 0 20.78 13.19 13.19 0 0 1-5.04-10.39Z" fill="#EB001B"/><path d="M42.77 13.21A13.21 13.21 0 0 1 21.39 23.6a13.21 13.21 0 0 0 0-20.78 13.21 13.21 0 0 1 21.38 10.4Z" fill="#F79E1B"/><path d="M41.5 21.4v-.43h.18v-.09h-.44v.1h.17v.42h.1Zm.85 0v-.52h-.13l-.15.36-.16-.36h-.13v.52h.1V21l.14.34h.1l.14-.33v.39h.1Z" fill="#F79E1B"/></svg>