<svg width="50" height="15" viewBox="0 0 50 15" fill="none" xmlns="http://www.w3.org/2000/svg"><path d="M44.4.17h-9.36c.55 3.09 3.55 6 6.82 6h7.45c.1-.28.1-.73.1-1 0-2.73-2.28-5-5-5Z" fill="url(#paint0_linear_1_1730)"/><path d="M35.86 6.7v7.56h4.54v-4h4c2.18 0 4.1-1.55 4.73-3.55H35.86Z" fill="#4FAD50"/><path d="M19.86.17v14h4s1 0 1.54-1l3.55-7h.54v8h4.55v-14h-4s-1 .09-1.55 1c-2.27 4.63-3.54 7-3.54 7h-.55v-8h-4.54Z" fill="#4FAD50"/><path d="M.77 14.26v-14H5.3s1.27 0 2 2c1.82 5.27 2 6 2 6s.37-1.28 2-6c.73-2 2-2 2-2h4.55v14H13.3V6.7h-.54l-2.55 7.55h-2L5.68 6.7h-.55v7.55H.77Z" fill="#4FAD50"/><defs><linearGradient id="paint0_linear_1_1730" x1="35.02" y1="3.21" x2="49.37" y2="3.21" gradientUnits="userSpaceOnUse"><stop stop-color="#27B1E6"/><stop offset="1" stop-color="#148ACA"/></linearGradient></defs></svg>