<svg width="24" height="24" viewBox="0 0 24 24" fill="none" xmlns="http://www.w3.org/2000/svg"><path fill-rule="evenodd" clip-rule="evenodd" d="M4.73 15.73A4.63 4.63 0 0 1 8 14.37h8A4.63 4.63 0 0 1 20.63 19v2c0 .35-.28.63-.63.63H4a.62.62 0 0 1-.63-.63v-2c0-1.23.5-2.4 1.36-3.27Zm3.27-.1A3.38 3.38 0 0 0 4.62 19v1.38h14.75V19A3.38 3.38 0 0 0 16 15.62H8Z" fill="#383838"/><path d="M12 11a4 4 0 1 0 0-8 4 4 0 0 0 0 8Z" stroke="#383838" stroke-width="1.25" stroke-linecap="round" stroke-linejoin="round"/></svg>