<svg width="120" height="12" viewBox="0 0 120 12" fill="none" xmlns="http://www.w3.org/2000/svg"><path d="m6 0 1.68 3.69 4.03.46-3 2.73.82 3.97-3.53-2-3.53 2 .81-3.97L.3 4.15l4.03-.46L6 0Z" fill="#FF9D29"/><path d="m26 0 1.68 3.69 4.03.46-3 2.73.82 3.97-3.53-2-3.53 2 .81-3.97-2.99-2.73 4.03-.46L26 0Z" fill="#FF9D29"/><path d="m46 0 1.68 3.69 4.03.46-3 2.73.82 3.97-3.53-2-3.53 2 .81-3.97-2.99-2.73 4.03-.46L46 0Z" fill="#FF9D29"/><path d="m66 0 1.68 3.69 4.03.46-3 2.73.82 3.97-3.53-2-3.53 2 .81-3.97-2.99-2.73 4.03-.46L66 0Z" fill="#FF9D29"/><path d="m86 0 1.68 3.69 4.03.46-3 2.73.82 3.97-3.53-2-3.53 2 .81-3.97-2.99-2.73 4.03-.46L86 0Z" fill="#FF9D29"/></svg>