<svg width="45" height="15" viewBox="0 0 45 15" fill="none" xmlns="http://www.w3.org/2000/svg"><path d="M22.55.46 19.61 14h-3.55L19 .46h3.55ZM37.51 9.2l1.87-5.08 1.08 5.08H37.5Zm3.97 4.8h3.29L41.89.46h-3.03c-.68 0-1.26.39-1.51.99L32 14h3.74l.74-2.02h4.56l.43 2.02ZM32.2 9.58c0-3.58-5.02-3.78-4.98-5.38 0-.49.48-1 1.5-1.13a6.8 6.8 0 0 1 3.51.6L32.85.8a9.7 9.7 0 0 0-3.32-.6c-3.52 0-5.99 1.84-6 4.48-.03 1.95 1.76 3.03 3.1 3.68 1.39.67 1.85 1.1 1.85 1.68-.01.91-1.11 1.31-2.13 1.33-1.79.03-2.83-.48-3.65-.86l-.65 2.97c.84.38 2.37.7 3.96.72 3.73 0 6.18-1.82 6.19-4.63ZM17.47.46 11.71 14H7.95L5.12 3.2c-.17-.67-.32-.92-.85-1.2-.85-.45-2.26-.88-3.5-1.15l.08-.4H6.9c.77 0 1.46.51 1.64 1.39l1.5 7.83 3.7-9.21h3.73Z" fill="#1434CB"/></svg>